# xmcd
#
# Track frame offsets:
#	150
#	24375
#	54334
#	80526
#	111581
#	138114
#	156827
#	180650
#	197839
#	218898
#	244599
#	261456
#	282719
#	307510
#
# Disc length: 4425 seconds
#
# Revision: 1
# Processed by: cddbd v1.5.1PL0 Copyright (c) Steve Scherf et al.
# Submitted via: audiograbber 1.82.02
#
DISCID=c511470e
DTITLE=Eric Clapton - Pilgrim
DYEAR=1998
DGENRE=Rock
TTITLE0=My Father's Eyes
TTITLE1=River of Tears
TTITLE2=Pilgrim
TTITLE3=Broken Hearted
TTITLE4=One Chance
TTITLE5=Circus
TTITLE6=Goin' Down Slow
TTITLE7=Fall Like Rain
TTITLE8=Born In Time
TTITLE9=Sick and Tired
TTITLE10=Needs His Woman
TTITLE11=She's Gone
TTITLE12=You Were There
TTITLE13=Inside Of Me
EXTD=
EXTT0=
EXTT1=
EXTT2=
EXTT3=
EXTT4=
EXTT5=
EXTT6=
EXTT7=
EXTT8=
EXTT9=
EXTT10=
EXTT11=
EXTT12=
EXTT13=
PLAYORDER=
